<svg xmlns:xlink="http://www.w3.org/1999/xlink" xmlns="http://www.w3.org/2000/svg" class="css-ze2te4 css-qd6ojx" viewBox="0 0 80 80.06316174958882" width="110" height="110">
  <g transform="translate(-2.426105298494038, -2.4901052776135897) scale(0.8421052631578948)" class="css-wvyh56" fill="#262626">
    <g xmlns="http://www.w3.org/2000/svg" fill="#262626">
      <path d="M2.881,59.625v25.604l22.175,12.803L47.23,85.229V59.625L25.056,46.822L2.881,59.625z M37.778,79.772l-12.722,7.345   l-12.723-7.345v-14.69l12.723-7.346l12.722,7.346V79.772z" fill="#262626"></path>
      <path d="M72.556,15.759L50.381,2.957L28.206,15.76v25.605l22.175,12.803l22.175-12.803V15.759z M63.104,35.907l-12.723,7.346   l-12.722-7.346v-14.69l12.722-7.346l12.723,7.346V35.907z" fill="#262626"></path>
      <path d="M75.707,46.822L53.531,59.625v25.604l22.175,12.803l22.175-12.803V59.625L75.707,46.822z M88.429,79.772l-12.723,7.345   l-12.723-7.345v-14.69l12.724-7.346l12.722,7.346V79.772z" fill="#262626"></path>
    </g>
  </g>
</svg>