<svg width="298" height="81" viewBox="0 0 298 81" fill="none" xmlns="http://www.w3.org/2000/svg">
<path d="M0 47.7204V69.2817L18.6737 80.0632L37.3465 69.2817V47.7204L18.6737 36.939L0 47.7204ZM29.3869 64.6863L18.6737 70.8716L7.95958 64.6863V52.3158L18.6737 46.1297L29.3869 52.3158V64.6863Z" fill="#777777"/>
<path d="M58.6737 10.7806L40 0L21.3263 10.7815V32.3436L40 43.125L58.6737 32.3436V10.7806ZM50.7141 27.7474L40 33.9335L29.2867 27.7474V15.3768L40 9.19074L50.7141 15.3768V27.7474Z" fill="#777777"/>
<path d="M61.3272 36.939L42.6526 47.7204V69.2817L61.3263 80.0632L80 69.2817V47.7204L61.3272 36.939ZM72.0404 64.6863L61.3263 70.8716L50.6122 64.6863V52.3158L61.3272 46.1297L72.0404 52.3158V64.6863Z" fill="#777777"/>
<path d="M115.361 44.9074L116.519 47.6852C116.611 47.8241 116.657 48.0093 116.657 48.1944C116.657 49.3981 112.028 50.9259 108.37 50.9259C102.259 50.9259 98 47.4537 98 38.9352C98 31.5741 101.935 26.4815 108.139 26.4815C116.009 26.4815 117.398 33.5185 117.398 39.1204C117.398 40 117.213 40.2778 116.333 40.2778H103.88C103.88 42.8704 104.62 46.0648 108.972 46.0648C112.306 46.0648 114.204 44.537 114.852 44.537C115.083 44.537 115.269 44.7222 115.361 44.9074ZM103.88 35.9722H111.148C111.148 34.0741 111.009 30.787 107.815 30.787C104.204 30.787 104.019 34.6759 103.88 35.9722ZM136.611 44.9537L137.815 48.0093C137.861 48.1481 137.954 48.3333 137.954 48.4722C137.954 49.5833 134.204 50.9259 131.426 50.9259C124.991 50.9259 121.148 46.9907 121.148 39.1667C121.148 31.3426 125.083 26.4815 131.935 26.4815C134.435 26.4815 138.509 27.8704 138.509 29.3056C138.509 29.4444 138.417 29.5833 138.37 29.7222L136.657 32.7315C136.565 32.8241 136.472 32.963 136.333 32.963C135.87 32.963 134.343 31.1111 131.935 31.1111C128.787 31.1111 127.398 33.5185 127.398 38.8426C127.398 43.9352 128.602 46.2963 132.167 46.2963C134.528 46.2963 135.454 44.7222 136.287 44.7222C136.426 44.7222 136.519 44.8148 136.611 44.9537ZM150.963 46.2963C154.204 46.2963 154.759 43.0556 154.759 38.7037C154.759 34.3981 154.157 31.1111 150.963 31.1111C147.769 31.1111 147.167 34.3981 147.167 38.7037C147.167 43.0093 147.722 46.2963 150.963 46.2963ZM161.009 38.7037C161.009 46.1574 157.213 50.9259 150.963 50.9259C144.713 50.9259 140.917 46.1574 140.917 38.7037C140.917 31.25 144.713 26.4815 150.963 26.4815C157.167 26.4815 161.009 31.25 161.009 38.7037ZM180.454 29.3519L179.389 31.8981C179.296 32.1296 179.065 32.3148 179.019 32.3148C178.88 32.3148 176.611 31.1111 173.648 31.1111C171.889 31.1111 170.593 31.7593 170.593 33.3333C170.593 35.8333 174.759 35.6481 178.046 37.8241C179.852 39.0278 181.148 40.787 181.148 43.4722C181.148 47.7315 178.139 50.9259 173.231 50.9259C169.806 50.9259 164.528 49.1667 164.528 47.9167C164.528 47.7778 164.713 47.5 164.759 47.3148L165.778 44.6759C165.87 44.4444 165.963 44.2593 166.148 44.2593C166.333 44.2593 169.898 46.2963 172.769 46.2963C174.296 46.2963 175.593 45.6481 175.593 43.9815C175.593 41.2963 171.056 41.2963 168 39.2593C166.611 38.3333 165.269 36.713 165.269 34.0278C165.269 29.8148 168.463 26.4815 173.463 26.4815C176.287 26.4815 180.685 27.6852 180.685 28.75C180.685 28.8889 180.546 29.1667 180.454 29.3519ZM195.824 38.9815L198.278 27.8241C198.417 27.3148 198.648 26.8519 199.065 26.8519C199.25 26.8519 199.759 26.8981 199.898 26.8981L203.139 27.3148C203.833 27.4074 204.157 27.4537 204.157 27.7778C204.157 27.963 204.019 28.2407 203.926 28.6111L199.389 45.3241C198.556 48.3333 197.306 53.0556 196.287 55.6019C194.944 58.9815 192.074 59.9537 189.481 59.9537C186.935 59.9537 183.185 58.7037 183.185 57.8241C183.185 57.6389 183.278 57.4537 183.37 57.2685L184.759 54.2593C184.852 54.0278 185.037 53.9352 185.176 53.9352C185.639 53.9352 187.074 55.0926 189.111 55.0926C191.519 55.0926 192.213 53.6574 192.815 51.6667L193.278 50.1389H191.333C190.731 50.1389 190.639 49.9537 190.5 49.537L183.417 28.6111C183.37 28.5185 183.231 28.1481 183.185 27.8241C183.185 27.4537 183.509 27.4074 184.204 27.3148L188.046 26.8981C188.185 26.8981 188.694 26.8519 188.787 26.8519C189.157 26.8519 189.296 27.3148 189.435 27.7778L192.444 38.9815C193 41.0648 193.926 45.4167 194.204 46.9907H194.296C194.528 45.1852 195.639 39.8148 195.824 38.9815ZM222.444 29.3519L221.38 31.8981C221.287 32.1296 221.056 32.3148 221.009 32.3148C220.87 32.3148 218.602 31.1111 215.639 31.1111C213.88 31.1111 212.583 31.7593 212.583 33.3333C212.583 35.8333 216.75 35.6481 220.037 37.8241C221.843 39.0278 223.139 40.787 223.139 43.4722C223.139 47.7315 220.13 50.9259 215.222 50.9259C211.796 50.9259 206.519 49.1667 206.519 47.9167C206.519 47.7778 206.704 47.5 206.75 47.3148L207.769 44.6759C207.861 44.4444 207.954 44.2593 208.139 44.2593C208.324 44.2593 211.889 46.2963 214.759 46.2963C216.287 46.2963 217.583 45.6481 217.583 43.9815C217.583 41.2963 213.046 41.2963 209.991 39.2593C208.602 38.3333 207.259 36.713 207.259 34.0278C207.259 29.8148 210.454 26.4815 215.454 26.4815C218.278 26.4815 222.676 27.6852 222.676 28.75C222.676 28.8889 222.537 29.1667 222.444 29.3519ZM240.731 45L241.657 48.7963C241.704 49.0278 241.75 49.0278 241.75 49.1667C241.75 50.0463 238.37 50.9259 235.222 50.9259C229.25 50.9259 229.25 46.25 229.25 41.9907V31.5741H225.963C225.407 31.5741 225.315 31.4352 225.315 30.9259V27.9167C225.315 27.4074 225.407 27.2685 225.963 27.2685H229.25V21.4352C229.25 20.8333 229.343 20.6944 229.991 20.6019L234.065 20.0463C234.204 20.0463 234.389 20 234.667 20C235.083 20 235.13 20.2315 235.13 20.787V27.2685H240.407C240.824 27.2685 241.194 27.2685 241.194 27.7778C241.194 27.8704 241.194 27.963 241.148 28.1481L240.546 30.8796C240.407 31.5278 240.269 31.5741 239.713 31.5741H235.13V42.7778C235.13 44.2593 235.13 45.6019 236.704 45.6019C238.556 45.6019 239.713 44.7222 240.361 44.7222C240.546 44.7222 240.685 44.8148 240.731 45ZM261.102 44.9074L262.259 47.6852C262.352 47.8241 262.398 48.0093 262.398 48.1944C262.398 49.3981 257.769 50.9259 254.111 50.9259C248 50.9259 243.741 47.4537 243.741 38.9352C243.741 31.5741 247.676 26.4815 253.88 26.4815C261.75 26.4815 263.139 33.5185 263.139 39.1204C263.139 40 262.954 40.2778 262.074 40.2778H249.62C249.62 42.8704 250.361 46.0648 254.713 46.0648C258.046 46.0648 259.944 44.537 260.593 44.537C260.824 44.537 261.009 44.7222 261.102 44.9074ZM249.62 35.9722H256.889C256.889 34.0741 256.75 30.787 253.556 30.787C249.944 30.787 249.759 34.6759 249.62 35.9722ZM298 33.7963V49.4907C298 50 297.907 50.1389 297.352 50.1389H292.769C292.213 50.1389 292.12 50 292.12 49.4907V35.2315C292.12 33.4722 291.935 31.3426 290.176 31.3426C288.231 31.3426 286.704 32.6852 286.102 33.2407V49.4907C286.102 50 286.009 50.1389 285.454 50.1389H280.87C280.315 50.1389 280.222 50 280.222 49.4907V35.2315C280.222 33.4722 280.037 31.3426 278.278 31.3426C276.333 31.3426 274.806 32.6852 274.204 33.2407V49.4907C274.204 50 274.111 50.1389 273.556 50.1389H268.972C268.417 50.1389 268.324 50 268.324 49.4907V35.5093C268.324 28.9815 267.444 29.3519 267.444 28.287C267.444 28.0556 267.63 27.8704 267.954 27.7778L271.472 26.6204C271.75 26.5278 271.981 26.4815 272.167 26.4815C272.769 26.4815 273.139 27.5 273.648 29.6759C275.037 28.4722 277.074 26.4815 280.731 26.4815C282.722 26.4815 284.898 27.7315 285.454 29.6759C286.843 28.4722 288.833 26.4815 292.63 26.4815C296.981 26.4815 298 29.7685 298 33.7963Z" fill="#777777"/>
</svg>
