<svg xmlns:xlink="http://www.w3.org/1999/xlink" xmlns="http://www.w3.org/2000/svg" viewBox="0 0 312.5 354.3241350445527" preserveAspectRatio="xMidYMid meet" class="css-14no893" id="beaeghba" width="312.5" height="354.3241350445527">
  <defs id="SvgjsDefs2542"></defs>
  <g id="SvgjsG2543" featurekey="rootContainer" transform="matrix(6.3004014813942035,0,0,6.3004014813942035,0.000046358657472104394,0.02629501308574099)" fill="#262626">
    <path xmlns="http://www.w3.org/2000/svg" d="M23.11 55.78L1.69 43.41A3.39 3.39 0 0 1 0 40.48V15.75a3.39 3.39 0 0 1 1.69-2.94L23.11.45a3.39 3.39 0 0 1 3.39 0l21.41 12.37a3.39 3.39 0 0 1 1.69 2.94v24.72a3.39 3.39 0 0 1-1.69 2.94L26.5 55.78a3.39 3.39 0 0 1-3.39 0z" fill="#262626">
    </path>
  </g>
  <g id="SvgjsG2544" featurekey="symbolFeature-0" transform="matrix(0.8421052631578948,0,0,0.8421052631578948,113.57389470150596,92.5098947223864)" fill="#F3F6F6">
    <g xmlns="http://www.w3.org/2000/svg" fill="#F3F6F6">
      <path d="M2.881,59.625v25.604l22.175,12.803L47.23,85.229V59.625L25.056,46.822L2.881,59.625z M37.778,79.772l-12.722,7.345   l-12.723-7.345v-14.69l12.723-7.346l12.722,7.346V79.772z" fill="#F3F6F6"></path>
      <path d="M72.556,15.759L50.381,2.957L28.206,15.76v25.605l22.175,12.803l22.175-12.803V15.759z M63.104,35.907l-12.723,7.346   l-12.722-7.346v-14.69l12.722-7.346l12.723,7.346V35.907z" fill="#F3F6F6"></path>
      <path d="M75.707,46.822L53.531,59.625v25.604l22.175,12.803l22.175-12.803V59.625L75.707,46.822z M88.429,79.772l-12.723,7.345   l-12.723-7.345v-14.69l12.724-7.346l12.722,7.346V79.772z" fill="#F3F6F6"></path>
    </g>
  </g>
  <g id="SvgjsG2545" featurekey="nameFeature-0" transform="matrix(1.1574073869668575,0,0,1.1574073869668575,54.10185148801006,178.8425928337911)" fill="#F3F6F6">
    <path d="M16.64 35.480000000000004 l1 2.4 c0.08 0.12 0.12 0.28 0.12 0.44 c0 1.04 -4 2.36 -7.16 2.36 c-5.28 0 -8.96 -3 -8.96 -10.36 c0 -6.36 3.4 -10.76 8.76 -10.76 c6.8 0 8 6.08 8 10.92 c0 0.76 -0.16 1 -0.92 1 l-10.76 0 c0 2.24 0.64 5 4.4 5 c2.88 0 4.52 -1.32 5.08 -1.32 c0.2 0 0.36 0.16 0.44 0.32 z M6.72 27.759999999999998 l6.28 0 c0 -1.64 -0.12 -4.48 -2.88 -4.48 c-3.12 0 -3.28 3.36 -3.4 4.48 z M35 35.519999999999996 l1.04 2.64 c0.04 0.12 0.12 0.28 0.12 0.4 c0 0.96 -3.24 2.12 -5.64 2.12 c-5.56 0 -8.88 -3.4 -8.88 -10.16 s3.4 -10.96 9.32 -10.96 c2.16 0 5.68 1.2 5.68 2.44 c0 0.12 -0.08 0.24 -0.12 0.36 l-1.48 2.6 c-0.08 0.08 -0.16 0.2 -0.28 0.2 c-0.4 0 -1.72 -1.6 -3.8 -1.6 c-2.72 0 -3.92 2.08 -3.92 6.68 c0 4.4 1.04 6.44 4.12 6.44 c2.04 0 2.84 -1.36 3.56 -1.36 c0.12 0 0.2 0.08 0.28 0.2 z M47.4 36.68 c2.8 0 3.28 -2.8 3.28 -6.56 c0 -3.72 -0.52 -6.56 -3.28 -6.56 s-3.28 2.84 -3.28 6.56 s0.48 6.56 3.28 6.56 z M56.08 30.119999999999997 c0 6.44 -3.28 10.56 -8.68 10.56 s-8.68 -4.12 -8.68 -10.56 s3.28 -10.56 8.68 -10.56 c5.36 0 8.68 4.12 8.68 10.56 z M72.88 22.04 l-0.92 2.2 c-0.08 0.2 -0.28 0.36 -0.32 0.36 c-0.12 0 -2.08 -1.04 -4.64 -1.04 c-1.52 0 -2.64 0.56 -2.64 1.92 c0 2.16 3.6 2 6.44 3.88 c1.56 1.04 2.68 2.56 2.68 4.88 c0 3.68 -2.6 6.44 -6.84 6.44 c-2.96 0 -7.52 -1.52 -7.52 -2.6 c0 -0.12 0.16 -0.36 0.2 -0.52 l0.88 -2.28 c0.08 -0.2 0.16 -0.36 0.32 -0.36 s3.24 1.76 5.72 1.76 c1.32 0 2.44 -0.56 2.44 -2 c0 -2.32 -3.92 -2.32 -6.56 -4.08 c-1.2 -0.8 -2.36 -2.2 -2.36 -4.52 c0 -3.64 2.76 -6.52 7.08 -6.52 c2.44 0 6.24 1.04 6.24 1.96 c0 0.12 -0.12 0.36 -0.2 0.52 z M86.16 30.36 l2.12 -9.64 c0.12 -0.44 0.32 -0.84 0.68 -0.84 c0.16 0 0.6 0.04 0.72 0.04 l2.8 0.36 c0.6 0.08 0.88 0.12 0.88 0.4 c0 0.16 -0.12 0.4 -0.2 0.72 l-3.92 14.44 c-0.72 2.6 -1.8 6.68 -2.68 8.88 c-1.16 2.92 -3.64 3.76 -5.88 3.76 c-2.2 0 -5.44 -1.08 -5.44 -1.84 c0 -0.16 0.08 -0.32 0.16 -0.48 l1.2 -2.6 c0.08 -0.2 0.24 -0.28 0.36 -0.28 c0.4 0 1.64 1 3.4 1 c2.08 0 2.68 -1.24 3.2 -2.96 l0.4 -1.32 l-1.68 0 c-0.52 0 -0.6 -0.16 -0.72 -0.52 l-6.12 -18.08 c-0.04 -0.08 -0.16 -0.4 -0.2 -0.68 c0 -0.32 0.28 -0.36 0.88 -0.44 l3.32 -0.36 c0.12 0 0.56 -0.04 0.64 -0.04 c0.32 0 0.44 0.4 0.56 0.8 l2.6 9.68 c0.48 1.8 1.28 5.56 1.52 6.92 l0.08 0 c0.2 -1.56 1.16 -6.2 1.32 -6.92 z M109.16000000000001 22.04 l-0.92 2.2 c-0.08 0.2 -0.28 0.36 -0.32 0.36 c-0.12 0 -2.08 -1.04 -4.64 -1.04 c-1.52 0 -2.64 0.56 -2.64 1.92 c0 2.16 3.6 2 6.44 3.88 c1.56 1.04 2.68 2.56 2.68 4.88 c0 3.68 -2.6 6.44 -6.84 6.44 c-2.96 0 -7.52 -1.52 -7.52 -2.6 c0 -0.12 0.16 -0.36 0.2 -0.52 l0.88 -2.28 c0.08 -0.2 0.16 -0.36 0.32 -0.36 s3.24 1.76 5.72 1.76 c1.32 0 2.44 -0.56 2.44 -2 c0 -2.32 -3.92 -2.32 -6.56 -4.08 c-1.2 -0.8 -2.36 -2.2 -2.36 -4.52 c0 -3.64 2.76 -6.52 7.08 -6.52 c2.44 0 6.24 1.04 6.24 1.96 c0 0.12 -0.12 0.36 -0.2 0.52 z M124.96000000000001 35.56 l0.8 3.28 c0.04 0.2 0.08 0.2 0.08 0.32 c0 0.76 -2.92 1.52 -5.64 1.52 c-5.16 0 -5.16 -4.04 -5.16 -7.72 l0 -9 l-2.84 0 c-0.48 0 -0.56 -0.12 -0.56 -0.56 l0 -2.6 c0 -0.44 0.08 -0.56 0.56 -0.56 l2.84 0 l0 -5.04 c0 -0.52 0.08 -0.64 0.64 -0.72 l3.52 -0.48 c0.12 0 0.28 -0.04 0.52 -0.04 c0.36 0 0.4 0.2 0.4 0.68 l0 5.6 l4.56 0 c0.36 0 0.68 0 0.68 0.44 c0 0.08 0 0.16 -0.04 0.32 l-0.52 2.36 c-0.12 0.56 -0.24 0.6 -0.72 0.6 l-3.96 0 l0 9.68 c0 1.28 0 2.44 1.36 2.44 c1.6 0 2.6 -0.76 3.16 -0.76 c0.16 0 0.28 0.08 0.32 0.24 z M142.56 35.480000000000004 l1 2.4 c0.08 0.12 0.12 0.28 0.12 0.44 c0 1.04 -4 2.36 -7.16 2.36 c-5.28 0 -8.96 -3 -8.96 -10.36 c0 -6.36 3.4 -10.76 8.76 -10.76 c6.8 0 8 6.08 8 10.92 c0 0.76 -0.16 1 -0.92 1 l-10.76 0 c0 2.24 0.64 5 4.4 5 c2.88 0 4.52 -1.32 5.08 -1.32 c0.2 0 0.36 0.16 0.44 0.32 z M132.64000000000001 27.759999999999998 l6.28 0 c0 -1.64 -0.12 -4.48 -2.88 -4.48 c-3.12 0 -3.28 3.36 -3.4 4.48 z M174.44000000000003 25.880000000000003 l0 13.56 c0 0.44 -0.08 0.56 -0.56 0.56 l-3.96 0 c-0.48 0 -0.56 -0.12 -0.56 -0.56 l0 -12.32 c0 -1.52 -0.16 -3.36 -1.68 -3.36 c-1.68 0 -3 1.16 -3.52 1.64 l0 14.04 c0 0.44 -0.08 0.56 -0.56 0.56 l-3.96 0 c-0.48 0 -0.56 -0.12 -0.56 -0.56 l0 -12.32 c0 -1.52 -0.16 -3.36 -1.68 -3.36 c-1.68 0 -3 1.16 -3.52 1.64 l0 14.04 c0 0.44 -0.08 0.56 -0.56 0.56 l-3.96 0 c-0.48 0 -0.56 -0.12 -0.56 -0.56 l0 -12.08 c0 -5.64 -0.76 -5.32 -0.76 -6.24 c0 -0.2 0.16 -0.36 0.44 -0.44 l3.04 -1 c0.24 -0.08 0.44 -0.12 0.6 -0.12 c0.52 0 0.84 0.88 1.28 2.76 c1.2 -1.04 2.96 -2.76 6.12 -2.76 c1.72 0 3.6 1.08 4.08 2.76 c1.2 -1.04 2.92 -2.76 6.2 -2.76 c3.76 0 4.64 2.84 4.64 6.32 z" fill="#F3F6F6"></path>
  </g>
  <g id="SvgjsG2546" featurekey="sloganFeature-0" transform="matrix(0.6058770377747499,0,0,0.6058770377747499,75.90305947750085,246.42532339701523)" fill="#F3F6F6">
    <path d="M12.1 6.02 l-5.52 8.86 l0 5.12 l-0.82 0 l0 -5.08 l-5.6 -8.9 l0.9 0 l5.1 7.86 l5.04 -7.86 l0.9 0 z M23.07 6.869999999999999 q1.67 0.95 2.64 2.57 t0.97 3.54 t-0.97 3.55 t-2.64 2.59 t-3.63 0.96 t-3.63 -0.96 t-2.64 -2.59 t-0.97 -3.55 t0.97 -3.54 t2.64 -2.57 t3.63 -0.95 t3.63 0.95 z M16.25 7.58 q-1.47 0.84 -2.33 2.27 t-0.86 3.13 t0.86 3.14 t2.33 2.29 t3.19 0.85 t3.19 -0.85 t2.33 -2.29 t0.86 -3.14 t-0.86 -3.13 t-2.33 -2.27 t-3.19 -0.84 t-3.19 0.84 z M31.770000000000003 17.97 q1.27 1.29 3.55 1.29 q2.26 0 3.53 -1.29 t1.27 -3.63 l0 -8.32 l0.84 0 l0 8.32 q0 2.72 -1.48 4.23 t-4.16 1.51 t-4.17 -1.51 t-1.49 -4.23 l0 -8.32 l0.84 0 l0 8.32 q0 2.34 1.27 3.63 z M54.84 20 l-3.3 -4.74 q-0.5 0.08 -1.18 0.08 l-4.1 0 l0 4.66 l-0.84 0 l0 -13.98 l4.94 0 q2.6 0 4.01 1.2 t1.41 3.4 q0 1.78 -0.88 2.93 t-2.56 1.57 l3.5 4.88 l-1 0 z M50.38 14.52 q2.2 0 3.39 -1 t1.19 -2.88 q0 -1.84 -1.19 -2.82 t-3.39 -0.98 l-4.12 0 l0 7.68 l4.12 0 z M82.2 6.02 l0.9 0 l-4.74 13.98 l-0.86 0 l-4.26 -12.86 l-4.28 12.86 l-0.86 0 l-4.74 -13.98 l0.94 0 l4.26 13.02 l4.26 -13.02 l0.86 0 l4.28 13.02 z M95.07 6.869999999999999 q1.67 0.95 2.64 2.57 t0.97 3.54 t-0.97 3.55 t-2.64 2.59 t-3.63 0.96 t-3.63 -0.96 t-2.64 -2.59 t-0.97 -3.55 t0.97 -3.54 t2.64 -2.57 t3.63 -0.95 t3.63 0.95 z M88.25 7.58 q-1.47 0.84 -2.33 2.27 t-0.86 3.13 t0.86 3.14 t2.33 2.29 t3.19 0.85 t3.19 -0.85 t2.33 -2.29 t0.86 -3.14 t-0.86 -3.13 t-2.33 -2.27 t-3.19 -0.84 t-3.19 0.84 z M111.41999999999999 20 l-3.3 -4.74 q-0.5 0.08 -1.18 0.08 l-4.1 0 l0 4.66 l-0.84 0 l0 -13.98 l4.94 0 q2.6 0 4.01 1.2 t1.41 3.4 q0 1.78 -0.88 2.93 t-2.56 1.57 l3.5 4.88 l-1 0 z M106.96 14.52 q2.2 0 3.39 -1 t1.19 -2.88 q0 -1.84 -1.19 -2.82 t-3.39 -0.98 l-4.12 0 l0 7.68 l4.12 0 z M116.44 6.02 l0.84 0 l0 13.16 l6.22 0 l0 0.82 l-7.06 0 l0 -13.98 z M135.63 6.949999999999999 q1.65 0.93 2.61 2.54 t0.96 3.53 q0 1.9 -0.96 3.51 t-2.62 2.54 t-3.62 0.93 l-5.54 0 l0 -13.98 l5.56 0 q1.96 0 3.61 0.93 z M135.19 18.35 q1.45 -0.83 2.3 -2.24 t0.85 -3.09 q0 -1.7 -0.85 -3.11 t-2.3 -2.24 t-3.19 -0.83 l-4.7 0 l0 12.34 l4.72 0 q1.72 0 3.17 -0.83 z M148.26 6.02 l1.16 0 l5.82 11.02 l5.78 -11.02 l1.14 0 l0 13.98 l-0.78 0 l-0.02 -12.82 l-5.96 11.3 l-0.36 0 l-5.98 -11.3 l0 12.82 l-0.8 0 l0 -13.98 z M177.43999999999997 20 l-1.82 -3.98 l-8.18 0 l-1.8 3.98 l-0.92 0 l6.34 -13.98 l0.9 0 l6.4 13.98 l-0.92 0 z M167.79999999999998 15.18 l7.44 0 l-3.74 -8.2 z M190.08999999999997 6.949999999999999 q1.65 0.93 2.61 2.54 t0.96 3.53 q0 1.9 -0.96 3.51 t-2.62 2.54 t-3.62 0.93 l-5.54 0 l0 -13.98 l5.56 0 q1.96 0 3.61 0.93 z M189.64999999999998 18.35 q1.45 -0.83 2.3 -2.24 t0.85 -3.09 q0 -1.7 -0.85 -3.11 t-2.3 -2.24 t-3.19 -0.83 l-4.7 0 l0 12.34 l4.72 0 q1.72 0 3.17 -0.83 z M196.98 6.02 l9.02 0 l0 0.82 l-8.18 0 l0 5.58 l7.28 0 l0 0.84 l-7.28 0 l0 5.92 l8.44 0 l0 0.82 l-9.28 0 l0 -13.98 z M215.66 6.02 l9.02 0 l0 0.82 l-8.18 0 l0 5.58 l7.28 0 l0 0.84 l-7.28 0 l0 5.92 l8.44 0 l0 0.82 l-9.28 0 l0 -13.98 z M239.07999999999998 20 l-1.82 -3.98 l-8.18 0 l-1.8 3.98 l-0.92 0 l6.34 -13.98 l0.9 0 l6.4 13.98 l-0.92 0 z M229.44 15.18 l7.44 0 l-3.74 -8.2 z M248.16 7.039999999999999 q-0.98 -0.26 -1.92 -0.26 q-1.66 0 -2.66 0.66 t-1 1.76 q0 0.96 0.51 1.56 t1.26 0.93 t2.03 0.73 q1.42 0.42 2.3 0.82 t1.48 1.18 t0.6 2.02 q0 1.08 -0.6 1.91 t-1.7 1.28 t-2.56 0.45 q-1.38 0 -2.72 -0.56 t-2.26 -1.48 l0.44 -0.74 q0.84 0.9 2.08 1.41 t2.48 0.51 q1.82 0 2.88 -0.75 t1.06 -2.01 q0 -0.98 -0.52 -1.59 t-1.29 -0.95 t-2.05 -0.72 q-1.44 -0.44 -2.29 -0.83 t-1.44 -1.15 t-0.59 -1.98 q0 -1 0.57 -1.76 t1.62 -1.17 t2.41 -0.41 q1.06 0 2.13 0.31 t1.87 0.83 l-0.38 0.76 q-0.76 -0.5 -1.74 -0.76 z M264.24 6.02 l-5.52 8.86 l0 5.12 l-0.82 0 l0 -5.08 l-5.6 -8.9 l0.9 0 l5.1 7.86 l5.04 -7.86 l0.9 0 z" fill="#F3F6F6"></path>
  </g>
</svg>