<?xml version="1.0" standalone="no"?>
<!DOCTYPE svg PUBLIC "-//W3C//DTD SVG 20010904//EN"
 "http://www.w3.org/TR/2001/REC-SVG-20010904/DTD/svg10.dtd">
<svg version="1.0" xmlns="http://www.w3.org/2000/svg"
 width="570.000000pt" height="570.000000pt" viewBox="0 0 570.000000 570.000000"
 preserveAspectRatio="xMidYMid meet">
<metadata>
Created by potrace 1.14, written by Peter Selinger 2001-2017
</metadata>
<g transform="translate(0.000000,570.000000) scale(0.100000,-0.100000)"
fill="#000000" stroke="none">
<path d="M2795 5670 c-27 -16 -55 -34 -62 -39 -7 -6 -14 -11 -17 -11 -2 0 -43
-22 -91 -50 -48 -27 -91 -50 -96 -50 -5 0 -9 -3 -9 -8 0 -4 -9 -12 -20 -17
-60 -31 -147 -79 -160 -89 -8 -7 -58 -36 -110 -66 -126 -71 -146 -82 -208
-119 -29 -17 -55 -31 -58 -31 -3 0 -30 -16 -61 -36 -31 -19 -65 -40 -77 -45
-12 -5 -84 -47 -161 -92 l-140 -82 0 -763 c0 -672 1 -765 15 -776 8 -7 38 -25
65 -41 112 -61 141 -79 167 -96 14 -11 29 -19 33 -19 4 0 41 -20 82 -45 40
-25 76 -45 79 -45 4 0 75 -42 130 -78 10 -6 26 -15 34 -19 8 -4 79 -44 157
-90 78 -46 147 -83 152 -83 5 0 11 -4 13 -8 2 -4 35 -25 73 -47 39 -21 73 -42
76 -47 3 -6 8 -8 10 -7 2 2 57 -27 121 -65 l118 -68 172 100 c95 54 261 150
368 212 107 62 220 126 250 143 30 17 57 33 60 36 3 4 21 14 40 24 65 34 95
52 100 58 3 3 10 8 16 10 6 2 80 44 165 93 l154 89 0 762 0 763 -27 21 c-14
12 -29 21 -32 21 -4 0 -25 12 -49 27 -23 15 -67 40 -97 56 -30 16 -62 35 -70
41 -8 6 -35 22 -60 35 -25 13 -52 30 -61 37 -8 8 -19 14 -23 14 -4 0 -60 31
-124 69 -64 37 -137 79 -162 93 -67 37 -171 98 -200 116 -14 9 -28 15 -32 14
-5 -1 -8 2 -8 8 0 6 -4 10 -9 10 -7 0 -161 87 -231 131 -22 13 -142 79 -143
78 -1 0 -24 -13 -52 -29z m335 -780 c6 0 10 -4 10 -10 0 -5 4 -10 10 -10 8 0
137 -71 180 -100 8 -6 24 -14 35 -20 11 -5 38 -21 60 -35 22 -14 47 -28 55
-32 8 -4 41 -22 73 -40 l57 -34 -2 -441 c-3 -429 -4 -441 -23 -452 -11 -6 -31
-18 -45 -27 -14 -9 -45 -27 -70 -41 -25 -14 -61 -35 -80 -46 -19 -12 -44 -26
-55 -32 -11 -5 -69 -39 -130 -74 -60 -36 -135 -79 -165 -96 -30 -17 -71 -40
-90 -51 -98 -59 -100 -60 -131 -39 -15 11 -30 20 -34 20 -9 0 -145 80 -166 97
-9 7 -19 10 -22 6 -4 -3 -7 -1 -7 5 0 7 -5 12 -10 12 -6 0 -29 12 -53 27 -23
14 -67 40 -97 56 -30 16 -62 36 -71 43 -8 8 -20 14 -25 15 -5 0 -61 31 -124
68 l-115 67 0 443 0 443 230 132 c127 73 297 171 378 218 l149 86 134 -79 c74
-43 139 -79 144 -79z"/>
<path d="M1210 3004 c-126 -73 -166 -96 -230 -130 -19 -11 -37 -21 -40 -25 -5
-5 -61 -37 -170 -97 -25 -13 -52 -30 -60 -36 -14 -11 -28 -18 -122 -71 -61
-33 -305 -175 -437 -252 -67 -40 -127 -73 -132 -73 -5 0 -9 -321 -9 -769 l0
-769 67 -39 c38 -22 230 -133 428 -248 198 -114 376 -217 395 -228 114 -66
145 -84 178 -102 32 -17 90 -51 154 -90 9 -5 37 -21 61 -34 l45 -24 49 28 c26
15 68 39 93 52 25 14 50 29 55 33 9 7 35 22 106 61 13 8 40 23 59 35 19 12
175 101 345 199 171 98 357 206 415 239 58 34 116 67 130 74 14 7 36 21 48 31
l24 18 0 762 c0 419 -2 764 -4 765 -7 6 -276 160 -328 189 -30 17 -73 42 -95
56 -22 14 -56 33 -75 43 -19 10 -57 32 -85 48 -27 17 -57 34 -65 37 -8 4 -17
9 -20 12 -5 6 -20 15 -88 52 -20 11 -59 34 -87 50 -27 17 -58 33 -67 36 -10 3
-18 9 -18 14 0 5 -4 9 -10 9 -5 0 -76 39 -157 86 -81 47 -166 96 -188 109
l-40 22 -125 -73z m194 -619 c32 -19 60 -35 61 -35 2 0 60 -34 130 -75 69 -41
129 -75 131 -75 3 0 30 -16 60 -35 30 -19 56 -35 58 -35 3 0 49 -26 103 -57
54 -32 109 -64 123 -71 l26 -13 -1 -441 c0 -381 -2 -442 -15 -449 -8 -5 -46
-27 -85 -50 -38 -23 -88 -52 -110 -64 -22 -12 -80 -46 -130 -75 -49 -29 -108
-62 -130 -74 -22 -12 -42 -23 -45 -26 -5 -5 -24 -16 -99 -57 -25 -14 -51 -30
-58 -35 -7 -5 -28 -18 -48 -28 -30 -16 -41 -17 -63 -7 -15 6 -29 14 -32 17 -3
3 -20 13 -38 23 -81 43 -97 53 -110 65 -7 6 -18 12 -23 12 -6 0 -25 11 -43 25
-18 14 -36 25 -40 25 -3 0 -61 32 -129 71 -67 40 -137 80 -154 90 -18 11 -50
29 -70 41 -21 12 -50 28 -66 35 -15 8 -28 18 -28 21 -5 29 -3 857 3 871 3 10
21 25 40 35 18 9 40 21 48 26 35 23 276 161 365 210 33 18 67 39 76 46 8 8 18
14 22 14 3 0 48 25 99 55 51 30 98 55 104 55 5 0 36 -16 68 -35z"/>
<path d="M4325 3056 c-21 -14 -323 -189 -385 -222 -19 -10 -36 -22 -38 -26 -2
-5 -7 -8 -12 -8 -5 0 -66 -34 -135 -75 -70 -41 -129 -75 -131 -75 -3 0 -28
-15 -57 -33 -29 -18 -63 -38 -77 -45 -14 -6 -32 -16 -40 -22 -23 -15 -329
-192 -372 -215 -21 -11 -38 -24 -39 -30 -6 -82 1 -1519 7 -1525 8 -8 152 -93
276 -163 36 -21 124 -71 396 -228 17 -11 47 -27 65 -38 18 -10 89 -51 157 -91
69 -40 150 -87 180 -103 30 -17 95 -55 145 -84 49 -29 93 -53 98 -53 9 0 87
40 97 50 3 3 16 11 29 18 13 8 38 22 55 31 17 10 73 42 124 72 51 30 110 63
130 74 20 11 39 22 42 25 3 3 16 11 30 18 14 6 32 16 40 22 27 18 221 130 226
130 2 0 27 15 56 34 29 18 63 36 76 40 12 4 22 12 22 17 0 5 4 9 9 9 6 0 94
49 198 109 l188 108 2 769 2 769 -296 170 c-162 94 -312 179 -332 190 -20 11
-56 32 -81 47 -405 236 -604 348 -618 348 -10 0 -26 -6 -37 -14z m219 -735
c94 -54 194 -111 221 -127 28 -15 78 -45 113 -66 34 -21 64 -38 66 -38 2 0 43
-24 92 -53 l89 -53 0 -439 0 -438 -30 -17 c-16 -9 -132 -76 -257 -148 -125
-73 -232 -132 -238 -132 -5 0 -10 -3 -10 -8 0 -4 -21 -18 -47 -32 -27 -14 -77
-42 -112 -63 -70 -43 -68 -43 -153 11 -40 26 -81 49 -138 79 -19 10 -36 21
-38 26 -2 4 -7 7 -12 7 -5 0 -41 19 -82 43 -40 24 -93 55 -118 69 -198 112
-266 153 -276 164 -12 15 -13 862 -1 882 5 7 27 22 50 34 37 18 403 229 617
354 41 24 79 44 84 44 5 0 86 -44 180 -99z"/>
</g>
</svg>
